<svg width="32" height="32" viewBox="0 0 32 32" fill="none" xmlns="http://www.w3.org/2000/svg">
<path d="M9.5 16C11.9853 16 14 13.9853 14 11.5C14 9.01472 11.9853 7 9.5 7C7.01472 7 5 9.01472 5 11.5C5 13.9853 7.01472 16 9.5 16Z" fill="#9997AC"/>
<path d="M14.625 18.5C12.865 17.6062 10.9225 17.25 9.5 17.25C6.71375 17.25 1 18.9588 1 22.375V25H10.375V23.9956C10.375 22.8081 10.875 21.6175 11.75 20.625C12.4481 19.8325 13.4256 19.0969 14.625 18.5Z" fill="#9997AC"/>
<path d="M21.25 18C17.9956 18 11.5 20.01 11.5 24V27H31V24C31 20.01 24.5044 18 21.25 18Z" fill="#9997AC"/>
<path d="M21.25 16C24.2876 16 26.75 13.5376 26.75 10.5C26.75 7.46243 24.2876 5 21.25 5C18.2124 5 15.75 7.46243 15.75 10.5C15.75 13.5376 18.2124 16 21.25 16Z" fill="#9997AC"/>
</svg>
